<svg xmlns="http://www.w3.org/2000/svg" viewBox="0 0 128 128"><defs><linearGradient id="g" x2=".8" y2="1"><stop stop-color="#ffb3ce"/><stop offset=".5" stop-color="#ec3983"/><stop offset="1" stop-color="#753bae"/></linearGradient></defs><ellipse cx="64" cy="112" rx="39" ry="7" fill="#411653" opacity=".15"/><path d="M29 50 10 32 9 60 22 76 8 94 37 90 48 68M99 50l19-18 1 28-13 16 14 18-29-4-11-22" fill="#fa719b" stroke="#552356" stroke-width="4" stroke-linejoin="round"/><path d="M35 44c10-10 46-10 57 2 10 12 12 37-2 48-12 9-40 8-52-1-15-12-16-33-3-49Z" fill="url(#g)" stroke="#552356" stroke-width="4"/><path d="m71 45-22 27h17l-6 21 25-31H68Z" fill="#fff0ce"/><path d="M28 27c-10-14 10-25 18-14 4-17 31-13 30 1 14-12 35 2 22 14Z" fill="#dc2567" stroke="#80214c" stroke-width="3"/><path d="M34 24c12 7 47 7 57-1" fill="none" stroke="#ff9bbc" stroke-width="4" stroke-linecap="round"/></svg>
