<svg xmlns="http://www.w3.org/2000/svg" viewBox="0 0 512 512" role="img" aria-label="Battle trainer throwing">
  <defs>
    <linearGradient id="skin" x1="0" y1="0" x2="0" y2="1">
      <stop offset="0" stop-color="#ffd8a8"/>
      <stop offset="1" stop-color="#f5a86c"/>
    </linearGradient>
    <linearGradient id="shirt" x1="0" y1="0" x2="1" y2="1">
      <stop offset="0" stop-color="#38bdf8"/>
      <stop offset="0.55" stop-color="#2563eb"/>
      <stop offset="1" stop-color="#1e3a8a"/>
    </linearGradient>
    <linearGradient id="cap" x1="0" y1="0" x2="1" y2="1">
      <stop offset="0" stop-color="#ff6b6b"/>
      <stop offset="1" stop-color="#b91c1c"/>
    </linearGradient>
    <linearGradient id="shorts" x1="0" y1="0" x2="0" y2="1">
      <stop offset="0" stop-color="#0f766e"/>
      <stop offset="1" stop-color="#064e3b"/>
    </linearGradient>
    <filter id="shadow" x="-20%" y="-20%" width="140%" height="150%">
      <feDropShadow dx="0" dy="18" stdDeviation="10" flood-color="#0f172a" flood-opacity="0.25"/>
    </filter>
  </defs>
  <ellipse cx="248" cy="470" rx="112" ry="24" fill="#0f172a" opacity="0.18"/>
  <g filter="url(#shadow)">
    <path d="M211 220c-38 25-63 58-76 99" fill="none" stroke="url(#skin)" stroke-width="30" stroke-linecap="round"/>
    <path d="M302 217c35-18 63-49 82-93" fill="none" stroke="url(#skin)" stroke-width="30" stroke-linecap="round"/>
    <circle cx="393" cy="107" r="18" fill="url(#skin)"/>
    <path d="M194 208c29-23 92-25 124 1 23 18 31 59 18 105-11 38-36 65-80 65-47 0-76-30-88-68-13-41 0-82 26-103z" fill="url(#shirt)"/>
    <path d="M177 300c30 19 111 24 160-4l-11 67c-9 31-35 49-74 49-38 0-63-18-72-49z" fill="url(#shorts)"/>
    <path d="M211 383l-19 72" fill="none" stroke="url(#skin)" stroke-width="27" stroke-linecap="round"/>
    <path d="M293 383l21 72" fill="none" stroke="url(#skin)" stroke-width="27" stroke-linecap="round"/>
    <path d="M166 461h62c8 0 13 6 10 13-5 13-73 12-90 6-7-3-6-12 3-15z" fill="#1f2937"/>
    <path d="M286 461h62c8 0 13 6 10 13-5 13-73 12-90 6-7-3-6-12 3-15z" fill="#1f2937"/>
    <circle cx="254" cy="137" r="66" fill="url(#skin)"/>
    <path d="M179 135c-12-47 25-88 77-89 47-1 82 29 82 73-48-28-103-24-159 16z" fill="#1f2937"/>
    <path d="M183 120c24-54 90-70 148-38 20 12 31 25 36 41-55-19-105-21-184-3z" fill="url(#cap)"/>
    <path d="M265 68c24-4 71 17 89 41-39-12-76-16-112-7z" fill="#f8fafc"/>
    <path d="M335 118c32 0 50 6 67 20-34 7-62 4-86-9z" fill="url(#cap)"/>
    <circle cx="232" cy="148" r="8" fill="#111827"/>
    <circle cx="281" cy="148" r="8" fill="#111827"/>
    <path d="M236 176c14 12 34 12 48 0" fill="none" stroke="#7c2d12" stroke-width="7" stroke-linecap="round"/>
    <path d="M204 222c8 24 85 32 113 0" fill="none" stroke="#ffffff" stroke-width="8" stroke-linecap="round" opacity="0.34"/>
    <path d="M142 325c-11 11-31 8-34-7-3-12 10-30 29-30 15 0 22 26 5 37z" fill="url(#skin)"/>
  </g>
</svg>
