<svg xmlns="http://www.w3.org/2000/svg" width="192" height="192" viewBox="0 0 192 192" role="img" aria-label="小河蟹"><title>小河蟹</title><defs><linearGradient id="body" x1="0" y1="0" x2=".7" y2="1"><stop stop-color="#f3e0b0"/><stop offset=".47" stop-color="#c6956f"/><stop offset="1" stop-color="#724e59"/></linearGradient><linearGradient id="fin" x1="0" y1="0" x2=".7" y2="1"><stop stop-color="#c6956f"/><stop offset=".47" stop-color="#724e59"/><stop offset="1" stop-color="#243d53"/></linearGradient><linearGradient id="gold" x1="0" y1="0" x2=".7" y2="1"><stop stop-color="#fff3b0"/><stop offset=".47" stop-color="#e2b951"/><stop offset="1" stop-color="#997133"/></linearGradient><linearGradient id="metal" x1="0" y1="0" x2=".7" y2="1"><stop stop-color="#ecf9ff"/><stop offset=".47" stop-color="#9ec9d8"/><stop offset="1" stop-color="#557d9b"/></linearGradient><radialGradient id="aura"><stop stop-color="#c6956f" stop-opacity=".27"/><stop offset="1" stop-color="#c6956f" stop-opacity="0"/></radialGradient><filter id="shadow" x="-30%" y="-30%" width="160%" height="160%"><feDropShadow dx="0" dy="4" stdDeviation="3" flood-color="#112f43" flood-opacity=".16"/></filter></defs><ellipse cx="96" cy="155" rx="62" ry="8" fill="#164657" opacity=".09"/><g filter="url(#shadow)"><path d="M60 106L38 118L31 138M62 116L49 141L56 149M132 105L153 119L162 138M128 117L144 140L139 151" fill="none" stroke="#724e59" stroke-width="5" stroke-linecap="round" stroke-linejoin="round" /><path d="M52 98Q25 104 23 82L29 63L36 78L47 63L54 86Z" fill="url(#body)" stroke="#213746" stroke-width="2.6" stroke-linejoin="round"/><path d="M138 94Q165 103 173 81L167 63L158 79L148 66L137 83Z" fill="url(#body)" stroke="#213746" stroke-width="2.6" stroke-linejoin="round"/><path d="M51 82L68 90M141 81L126 91" fill="none" stroke="#724e59" stroke-width="9" stroke-linecap="round" stroke-linejoin="round" /><path d="M59 92Q64 68 92 67Q124 66 133 92L134 114Q95 138 59 114Z" fill="url(#body)" stroke="#213746" stroke-width="2.6" stroke-linejoin="round"/><path d="M75 87Q96 76 117 87M74 112Q96 119 116 111" fill="none" stroke="#f3e0b0" stroke-width="2.7" stroke-linecap="round" stroke-linejoin="round" opacity=".8"/><circle cx="80" cy="87" r="5" fill="#fff8e8" stroke="#243d48" stroke-width="1.7"/><circle cx="81" cy="86.7" r="2.7" fill="#112c3a" /><circle cx="81.6" cy="85.3" r="1.1" fill="#fff" /><circle cx="111" cy="87" r="5" fill="#fff8e8" stroke="#243d48" stroke-width="1.7"/><circle cx="112" cy="86.7" r="2.7" fill="#112c3a" /><circle cx="112.6" cy="85.3" r="1.1" fill="#fff" /><path d="M85 113Q96 120 107 113" fill="none" stroke="#724e59" stroke-width="2" stroke-linecap="round" stroke-linejoin="round" /><path d="M72 78Q86 68 106 73" fill="none" stroke="#fff" stroke-width="2" stroke-linecap="round" stroke-linejoin="round" opacity=".6"/></g></svg>
