<svg xmlns="http://www.w3.org/2000/svg" width="192" height="192" viewBox="0 0 192 192" role="img" aria-label="蓝晶河虾"><title>蓝晶河虾</title><defs><linearGradient id="body" x1="0" y1="0" x2=".7" y2="1"><stop stop-color="#d7f7fd"/><stop offset=".47" stop-color="#62b5d1"/><stop offset="1" stop-color="#4a639a"/></linearGradient><linearGradient id="fin" x1="0" y1="0" x2=".7" y2="1"><stop stop-color="#62b5d1"/><stop offset=".47" stop-color="#4a639a"/><stop offset="1" stop-color="#243d53"/></linearGradient><linearGradient id="gold" x1="0" y1="0" x2=".7" y2="1"><stop stop-color="#fff3b0"/><stop offset=".47" stop-color="#e2b951"/><stop offset="1" stop-color="#997133"/></linearGradient><linearGradient id="metal" x1="0" y1="0" x2=".7" y2="1"><stop stop-color="#ecf9ff"/><stop offset=".47" stop-color="#9ec9d8"/><stop offset="1" stop-color="#557d9b"/></linearGradient><radialGradient id="aura"><stop stop-color="#62b5d1" stop-opacity=".27"/><stop offset="1" stop-color="#62b5d1" stop-opacity="0"/></radialGradient><filter id="shadow" x="-30%" y="-30%" width="160%" height="160%"><feDropShadow dx="0" dy="4" stdDeviation="3" flood-color="#112f43" flood-opacity=".16"/></filter></defs><ellipse cx="96" cy="155" rx="62" ry="8" fill="#164657" opacity=".09"/><g filter="url(#shadow)"><path d="M115 124L145 111L157 129L143 151L116 143Z" fill="url(#fin)" stroke="#294350" stroke-width="2" stroke-linejoin="round"/><path d="M130 50Q84 34 61 69Q43 101 64 128Q82 149 121 138L121 124Q92 131 78 115Q60 94 78 75Q91 56 120 66Z" fill="url(#body)" stroke="#213746" stroke-width="2.6" stroke-linejoin="round"/><path d="M66 71Q77 71.5 82 80" fill="none" stroke="#4a639a" stroke-width="2" stroke-linecap="round" stroke-linejoin="round" /><path d="M61 90Q72.5 87.5 78 93" fill="none" stroke="#4a639a" stroke-width="2" stroke-linecap="round" stroke-linejoin="round" /><path d="M67 111Q78 103 83 103" fill="none" stroke="#4a639a" stroke-width="2" stroke-linecap="round" stroke-linejoin="round" /><path d="M85 130Q92.5 119 94 116" fill="none" stroke="#4a639a" stroke-width="2" stroke-linecap="round" stroke-linejoin="round" /><ellipse cx="126" cy="61" rx="18" ry="15" fill="#62b5d1" stroke="#294350" stroke-width="2" stroke-linejoin="round"/><circle cx="134" cy="58" r="4.2" fill="#fff8e8" stroke="#243d48" stroke-width="1.7"/><circle cx="135" cy="57.7" r="2.2680000000000002" fill="#112c3a" /><circle cx="135.6" cy="56.3" r="1.1" fill="#fff" /><path d="M131 56Q153 17 175 30M134 60Q155 39 178 42" fill="none" stroke="#705a58" stroke-width="1.8" stroke-linecap="round" stroke-linejoin="round" /><path d="M72 109L49 137M88 124L76 151M105 133L108 153" fill="none" stroke="#7b5b5f" stroke-width="2" stroke-linecap="round" stroke-linejoin="round" /><path d="M105 136Q126 119 144 130L153 145Q132 155 112 147Z" fill="url(#gold)" stroke="#294350" stroke-width="2" stroke-linejoin="round"/><path d="M131 143Q144 129 166 139L174 152Q151 160 135 151Z" fill="url(#gold)" stroke="#294350" stroke-width="2" stroke-linejoin="round"/><path d="M91 80L97 87L91 96L85 87Z" fill="#eff7ff" stroke="#7f84cc" stroke-width="1.5"/><path d="M108 95L114 102L108 111L102 102Z" fill="#eff7ff" stroke="#7f84cc" stroke-width="1.5"/><path d="M78 104L84 111L78 120L72 111Z" fill="#eff7ff" stroke="#7f84cc" stroke-width="1.5"/></g></svg>
