<svg xmlns="http://www.w3.org/2000/svg" width="192" height="192" viewBox="0 0 192 192" role="img" aria-label="绯壳河蟹"><title>绯壳河蟹</title><defs><linearGradient id="body" x1="0" y1="0" x2=".7" y2="1"><stop stop-color="#ffd5c8"/><stop offset=".47" stop-color="#ca6575"/><stop offset="1" stop-color="#673b5e"/></linearGradient><linearGradient id="fin" x1="0" y1="0" x2=".7" y2="1"><stop stop-color="#ca6575"/><stop offset=".47" stop-color="#673b5e"/><stop offset="1" stop-color="#243d53"/></linearGradient><linearGradient id="gold" x1="0" y1="0" x2=".7" y2="1"><stop stop-color="#fff3b0"/><stop offset=".47" stop-color="#e2b951"/><stop offset="1" stop-color="#997133"/></linearGradient><linearGradient id="metal" x1="0" y1="0" x2=".7" y2="1"><stop stop-color="#ecf9ff"/><stop offset=".47" stop-color="#9ec9d8"/><stop offset="1" stop-color="#557d9b"/></linearGradient><radialGradient id="aura"><stop stop-color="#ca6575" stop-opacity=".27"/><stop offset="1" stop-color="#ca6575" stop-opacity="0"/></radialGradient><filter id="shadow" x="-30%" y="-30%" width="160%" height="160%"><feDropShadow dx="0" dy="4" stdDeviation="3" flood-color="#112f43" flood-opacity=".16"/></filter></defs><ellipse cx="96" cy="155" rx="62" ry="8" fill="#164657" opacity=".09"/><g filter="url(#shadow)"><path d="M58 103L36 119L28 149M65 117L48 144L56 160M137 104L161 122L166 148M130 117L146 140L139 159" fill="none" stroke="#673b5e" stroke-width="5" stroke-linecap="round" stroke-linejoin="round" /><path d="M50 90Q14 92 16 58L31 39L33 62L51 44L 60 68Z" fill="url(#body)" stroke="#213746" stroke-width="2.6" stroke-linejoin="round"/><path d="M138 85Q173 93 178 62L168 44L158  60L146 45L133 68Z" fill="url(#body)" stroke="#213746" stroke-width="2.6" stroke-linejoin="round"/><path d="M51 82L68 90M141 81L126 91" fill="none" stroke="#673b5e" stroke-width="9" stroke-linecap="round" stroke-linejoin="round" /><path d="M56 86Q65 60 96 60Q130 61 137 88L135 114L119 131L76 133L57 113Z" fill="url(#body)" stroke="#213746" stroke-width="2.6" stroke-linejoin="round"/><path d="M76 82L91 74L109 77L121 92L107 105L84 102Z" fill="none" stroke="#ffd5c8" stroke-width="2.7" stroke-linecap="round" stroke-linejoin="round" opacity=".8"/><circle cx="80" cy="87" r="5" fill="#fff8e8" stroke="#243d48" stroke-width="1.7"/><circle cx="81" cy="86.7" r="2.7" fill="#112c3a" /><circle cx="81.6" cy="85.3" r="1.1" fill="#fff" /><circle cx="111" cy="87" r="5" fill="#fff8e8" stroke="#243d48" stroke-width="1.7"/><circle cx="112" cy="86.7" r="2.7" fill="#112c3a" /><circle cx="112.6" cy="85.3" r="1.1" fill="#fff" /><path d="M85 113Q96 120 107 113" fill="none" stroke="#673b5e" stroke-width="2" stroke-linecap="round" stroke-linejoin="round" /><path d="M72 78Q86 68 106 73" fill="none" stroke="#fff" stroke-width="2" stroke-linecap="round" stroke-linejoin="round" opacity=".6"/></g></svg>
