<svg xmlns="http://www.w3.org/2000/svg" width="192" height="192" viewBox="0 0 192 192" role="img" aria-label="珊瑚宝匣"><title>珊瑚宝匣</title><defs><linearGradient id="body" x1="0" y1="0" x2=".7" y2="1"><stop stop-color="#ffe6a5"/><stop offset=".47" stop-color="#d39a4c"/><stop offset="1" stop-color="#734657"/></linearGradient><linearGradient id="fin" x1="0" y1="0" x2=".7" y2="1"><stop stop-color="#d39a4c"/><stop offset=".47" stop-color="#734657"/><stop offset="1" stop-color="#243d53"/></linearGradient><linearGradient id="gold" x1="0" y1="0" x2=".7" y2="1"><stop stop-color="#fff3b0"/><stop offset=".47" stop-color="#e2b951"/><stop offset="1" stop-color="#997133"/></linearGradient><linearGradient id="metal" x1="0" y1="0" x2=".7" y2="1"><stop stop-color="#ecf9ff"/><stop offset=".47" stop-color="#9ec9d8"/><stop offset="1" stop-color="#557d9b"/></linearGradient><radialGradient id="aura"><stop stop-color="#d39a4c" stop-opacity=".27"/><stop offset="1" stop-color="#d39a4c" stop-opacity="0"/></radialGradient><filter id="shadow" x="-30%" y="-30%" width="160%" height="160%"><feDropShadow dx="0" dy="4" stdDeviation="3" flood-color="#112f43" flood-opacity=".16"/></filter></defs><circle cx="96" cy="93" r="81" fill="url(#aura)" /><ellipse cx="96" cy="155" rx="62" ry="8" fill="#164657" opacity=".09"/><g filter="url(#shadow)"><path d="M42 88L96  70L150 87L147 137L96 155L45 137Z" fill="#b27557" stroke="#213746" stroke-width="2.6" stroke-linejoin="round"/><path d="M41 88Q42 45 96 48Q148 45 151 87L96 106Z" fill="#e7b485" stroke="#213746" stroke-width="2.6" stroke-linejoin="round"/><path d="M 60 80L60 139M132 81L132 139" fill="none" stroke="#efd083" stroke-width="6" stroke-linecap="round" stroke-linejoin="round" /><path d="M88 102L103 102L105 126L88 127Z" fill="url(#gold)" stroke="#213746" stroke-width="2.6" stroke-linejoin="round"/><path d="M96 111L96 119" fill="none" stroke="#705448" stroke-width="3" stroke-linecap="round" stroke-linejoin="round" /><path d="M57 63L49 45L58 30M58 47L 70 38M133 65L145  40L137 31" fill="none" stroke="#eab7ab" stroke-width="5" stroke-linecap="round" stroke-linejoin="round" /></g></svg>
