<svg xmlns="http://www.w3.org/2000/svg" width="192" height="192" viewBox="0 0 192 192" role="img" aria-label="花纹鲫"><title>花纹鲫</title><defs><linearGradient id="body" x1="0" y1="0" x2=".7" y2="1"><stop stop-color="#f7e9b9"/><stop offset=".47" stop-color="#c8b187"/><stop offset="1" stop-color="#726b58"/></linearGradient><linearGradient id="fin" x1="0" y1="0" x2=".7" y2="1"><stop stop-color="#c8b187"/><stop offset=".47" stop-color="#726b58"/><stop offset="1" stop-color="#243d53"/></linearGradient><linearGradient id="gold" x1="0" y1="0" x2=".7" y2="1"><stop stop-color="#fff3b0"/><stop offset=".47" stop-color="#e2b951"/><stop offset="1" stop-color="#997133"/></linearGradient><linearGradient id="metal" x1="0" y1="0" x2=".7" y2="1"><stop stop-color="#ecf9ff"/><stop offset=".47" stop-color="#9ec9d8"/><stop offset="1" stop-color="#557d9b"/></linearGradient><radialGradient id="aura"><stop stop-color="#c8b187" stop-opacity=".27"/><stop offset="1" stop-color="#c8b187" stop-opacity="0"/></radialGradient><filter id="shadow" x="-30%" y="-30%" width="160%" height="160%"><feDropShadow dx="0" dy="4" stdDeviation="3" flood-color="#112f43" flood-opacity=".16"/></filter></defs><ellipse cx="96" cy="155" rx="62" ry="8" fill="#164657" opacity=".09"/><g filter="url(#shadow)"><path d="M51 94L19 82L27 105L20 126L54 112Z" fill="url(#fin)" stroke="#294350" stroke-width="2" stroke-linejoin="round"/><path d="M68 73L70 51L101 43L119 65Z" fill="url(#fin)" stroke="#294350" stroke-width="2" stroke-linejoin="round"/><path d="M81 131L94 148L115 132Z" fill="url(#fin)" stroke="#294350" stroke-width="2" stroke-linejoin="round"/><path d="M45 102Q60 64 103 61Q143 61 157 99Q146 133 103 133Q64 132 45 107Z" fill="url(#body)" stroke="#213746" stroke-width="2.6" stroke-linejoin="round"/><path d="M71 79Q88 86 75 99Q64 111 82 124" fill="none" stroke="#726b58" stroke-width="2" stroke-linecap="round" stroke-linejoin="round" opacity=".6"/><path d="M97 73Q116 86 99 103Q87 113 104 127" fill="none" stroke="#726b58" stroke-width="2" stroke-linecap="round" stroke-linejoin="round" opacity=".6"/><path d="M129 77Q115 101 130 122" fill="none" stroke="#294853" stroke-width="2.1" stroke-linecap="round" stroke-linejoin="round" /><circle cx="142" cy="94" r="5.2" fill="#fff8e8" stroke="#243d48" stroke-width="1.7"/><circle cx="143" cy="93.7" r="2.8080000000000003" fill="#112c3a" /><circle cx="143.6" cy="92.3" r="1.1" fill="#fff" /><path d="M151 104l5 -1" fill="none" stroke="#344c54" stroke-width="1.7" stroke-linecap="round" stroke-linejoin="round" /><path d="M113 102q-14 12 -21 5q4 -13 21 -14Z" fill="#c8b187" stroke="#294350" stroke-width="2" stroke-linejoin="round"/><path d="M77 84q15 -8 25 -5" fill="none" stroke="#fff" stroke-width="2" stroke-linecap="round" stroke-linejoin="round" opacity=".5"/></g></svg>
