<svg xmlns="http://www.w3.org/2000/svg" width="192" height="192" viewBox="0 0 192 192" role="img" aria-label="斑节虾"><title>斑节虾</title><defs><linearGradient id="body" x1="0" y1="0" x2=".7" y2="1"><stop stop-color="#fff1c5"/><stop offset=".47" stop-color="#d8a157"/><stop offset="1" stop-color="#765b55"/></linearGradient><linearGradient id="fin" x1="0" y1="0" x2=".7" y2="1"><stop stop-color="#d8a157"/><stop offset=".47" stop-color="#765b55"/><stop offset="1" stop-color="#243d53"/></linearGradient><linearGradient id="gold" x1="0" y1="0" x2=".7" y2="1"><stop stop-color="#fff3b0"/><stop offset=".47" stop-color="#e2b951"/><stop offset="1" stop-color="#997133"/></linearGradient><linearGradient id="metal" x1="0" y1="0" x2=".7" y2="1"><stop stop-color="#ecf9ff"/><stop offset=".47" stop-color="#9ec9d8"/><stop offset="1" stop-color="#557d9b"/></linearGradient><radialGradient id="aura"><stop stop-color="#d8a157" stop-opacity=".27"/><stop offset="1" stop-color="#d8a157" stop-opacity="0"/></radialGradient><filter id="shadow" x="-30%" y="-30%" width="160%" height="160%"><feDropShadow dx="0" dy="4" stdDeviation="3" flood-color="#112f43" flood-opacity=".16"/></filter></defs><ellipse cx="96" cy="155" rx="62" ry="8" fill="#164657" opacity=".09"/><g filter="url(#shadow)"><path d="M116 130L142 119L155 137L140 155L114 145Z" fill="url(#fin)" stroke="#294350" stroke-width="2" stroke-linejoin="round"/><path d="M131 55Q89 30 66 61Q42 95 62 124Q76 145 116 140L122 126Q92 130 78 113Q64 94 80 72Q94 53 121 70Z" fill="url(#body)" stroke="#213746" stroke-width="2.6" stroke-linejoin="round"/><path d="M69 63Q79 66 83 77" fill="none" stroke="#765b55" stroke-width="2" stroke-linecap="round" stroke-linejoin="round" /><path d="M60 83Q71 81.5 76 88" fill="none" stroke="#765b55" stroke-width="2" stroke-linecap="round" stroke-linejoin="round" /><path d="M62 105Q73.5 98.5 79 100" fill="none" stroke="#765b55" stroke-width="2" stroke-linecap="round" stroke-linejoin="round" /><path d="M74 124Q84 114 88 112" fill="none" stroke="#765b55" stroke-width="2" stroke-linecap="round" stroke-linejoin="round" /><path d="M94 137Q102 126.5 104 124" fill="none" stroke="#765b55" stroke-width="2" stroke-linecap="round" stroke-linejoin="round" /><ellipse cx="128" cy="66" rx="18" ry="15" fill="#d8a157" stroke="#294350" stroke-width="2" stroke-linejoin="round"/><circle cx="136" cy="63" r="4.2" fill="#fff8e8" stroke="#243d48" stroke-width="1.7"/><circle cx="137" cy="62.7" r="2.2680000000000002" fill="#112c3a" /><circle cx="137.6" cy="61.3" r="1.1" fill="#fff" /><path d="M133 61Q152 23 172 32M136 66Q159 43 179 45" fill="none" stroke="#705a58" stroke-width="1.8" stroke-linecap="round" stroke-linejoin="round" /><path d="M70 103L47 133M84 121L74 151M102 133L105 155" fill="none" stroke="#7b5b5f" stroke-width="2" stroke-linecap="round" stroke-linejoin="round" /><path d="M66 69Q76 76 70 84" fill="none" stroke="#9f4e57" stroke-width="4" stroke-linecap="round" stroke-linejoin="round" /><path d="M60 89Q70 96 64 104" fill="none" stroke="#9f4e57" stroke-width="4" stroke-linecap="round" stroke-linejoin="round" /><path d="M71 110Q81 117 75 125" fill="none" stroke="#9f4e57" stroke-width="4" stroke-linecap="round" stroke-linejoin="round" /></g></svg>
